<svg width="611" height="150" viewBox="0 0 611 150" fill="none" xmlns="http://www.w3.org/2000/svg">
<g id="&#194;&#175;\_(&#227;&#131;&#132;)_/&#194;&#175;">
<path d="M47.7047 24.2073H0V14.0558H47.7047V24.2073Z" fill="#5A5A5A"/>
<path d="M59.3469 13.275H71.841L115.002 125.509H102.508L59.3469 13.275Z" fill="#5A5A5A"/>
<path d="M181.448 127.354H116.422V116.635H181.448V127.354Z" fill="#5A5A5A"/>
<path d="M191.174 74.6805C191.174 63.9849 192.593 53.7151 195.433 43.8713C198.32 34.0274 202.603 25.0828 208.282 17.0374C213.961 8.99195 219.853 3.31283 225.958 0L228.656 8.66067C221.746 13.9612 216.067 22.054 211.619 32.9389C207.217 43.8239 204.804 56.0104 204.378 69.4983L204.307 75.5324C204.307 93.8003 207.643 109.655 214.316 123.095C218.339 131.141 223.119 137.435 228.656 141.978L225.958 150C219.664 146.498 213.654 140.629 207.927 132.395C196.758 116.304 191.174 97.0658 191.174 74.6805Z" fill="#5A5A5A"/>
<path d="M297.72 7.30506L286.526 11.0851C290.16 18.6451 298.447 41.1799 300.774 49.4669L312.114 45.5415C309.642 37.3999 300.919 14.2836 297.72 7.30506ZM362.272 16.6097L348.896 12.8297C345.988 34.6376 337.12 57.8993 325.634 72.5832C310.951 91.1926 289.288 105.15 268.498 111.256L278.529 121.433C299.029 114.164 320.546 99.1888 335.521 79.4164C347.442 63.7147 355.293 42.9246 359.655 24.8967C360.236 22.5706 361.254 19.0813 362.272 16.6097ZM257.158 16.0282L245.672 20.2444C249.162 26.496 259.193 51.0662 261.956 60.0801L273.441 55.8639C270.097 46.4138 260.938 24.1698 257.158 16.0282Z" fill="#5A5A5A"/>
<path d="M417.061 75.3904C417.061 85.9442 415.665 96.0719 412.873 105.774C410.128 115.428 405.892 124.349 400.166 132.537C394.487 140.724 388.523 146.545 382.276 150L379.508 141.978C386.796 136.394 392.641 127.733 397.042 115.996C401.491 104.212 403.762 91.15 403.857 76.8102V74.5386C403.857 64.6001 402.816 55.3715 400.734 46.8528C398.651 38.2868 395.741 30.62 392.002 23.8523C388.31 17.0847 384.146 11.8079 379.508 8.02177L382.276 0C388.523 3.4548 394.463 9.22858 400.095 17.3213C405.774 25.4141 410.009 34.3351 412.802 44.0842C415.641 53.8334 417.061 64.2688 417.061 75.3904Z" fill="#5A5A5A"/>
<path d="M492.664 127.354H427.638V116.635H492.664V127.354Z" fill="#5A5A5A"/>
<path d="M505.513 125.509H494.226L537.388 13.275H548.604L505.513 125.509Z" fill="#5A5A5A"/>
<path d="M610.648 24.2073H562.944V14.0558H610.648V24.2073Z" fill="#5A5A5A"/>
</g>
</svg>
