<svg width="280" height="160" viewBox="0 0 280 160" fill="none" xmlns="http://www.w3.org/2000/svg" xmlns:xlink="http://www.w3.org/1999/xlink">
<g id="xmas">
<g id="emojione-v1:christmas-tree">
<g id="Vector">
<mask id="path-1-inside-1" fill="white">
<path d="M132.662 143.531C132.662 150.033 136.18 149.766 140.53 149.766C144.875 149.766 148.394 150.035 148.394 143.531C148.394 137.039 144.875 87.8132 140.53 87.8132C136.183 87.8132 132.662 137.039 132.662 143.531Z"/>
</mask>
<path d="M132.662 143.531C132.662 150.033 136.18 149.766 140.53 149.766C144.875 149.766 148.394 150.035 148.394 143.531C148.394 137.039 144.875 87.8132 140.53 87.8132C136.183 87.8132 132.662 137.039 132.662 143.531Z" fill="#DDB185"/>
<path d="M131.662 143.531C131.662 146.943 132.595 148.974 134.501 149.972C135.384 150.435 136.386 150.621 137.385 150.702C138.378 150.783 139.47 150.766 140.53 150.766V148.766C139.415 148.766 138.436 148.781 137.547 148.709C136.662 148.637 135.968 148.483 135.429 148.201C134.487 147.707 133.662 146.621 133.662 143.531H131.662ZM140.53 150.766C141.588 150.766 142.679 150.783 143.672 150.703C144.67 150.622 145.671 150.436 146.555 149.973C148.46 148.975 149.394 146.944 149.394 143.531H147.394C147.394 146.623 146.568 147.709 145.627 148.202C145.088 148.484 144.395 148.638 143.511 148.709C142.622 148.781 141.644 148.766 140.53 148.766V150.766ZM149.394 143.531C149.394 140.229 148.509 126.256 147.085 113.13C146.373 106.563 145.522 100.171 144.572 95.4106C144.099 93.0374 143.592 91.025 143.051 89.5884C142.783 88.8762 142.484 88.247 142.142 87.7779C141.827 87.3468 141.298 86.8132 140.53 86.8132V88.8132C140.304 88.8132 140.312 88.6642 140.527 88.9574C140.713 89.2126 140.936 89.6473 141.179 90.2937C141.662 91.5745 142.143 93.4586 142.611 95.8018C143.543 100.474 144.386 106.795 145.097 113.345C146.519 126.455 147.394 140.341 147.394 143.531H149.394ZM140.53 86.8132C139.761 86.8132 139.233 87.3465 138.918 87.7777C138.575 88.2468 138.277 88.876 138.008 89.5883C137.466 91.0249 136.96 93.0373 136.486 95.4105C135.536 100.171 134.684 106.563 133.971 113.13C132.547 126.256 131.662 140.229 131.662 143.531H133.662C133.662 140.341 134.537 126.455 135.96 113.346C136.671 106.795 137.515 100.474 138.447 95.8019C138.915 93.4587 139.396 91.5747 139.879 90.2939C140.123 89.6474 140.346 89.2128 140.533 88.9576C140.747 88.6645 140.755 88.8132 140.53 88.8132V86.8132Z" fill="#5A5A5A" mask="url(#path-1-inside-1)"/>
</g>
<g id="Vector_2">
<mask id="path-3-inside-2" fill="white">
<path d="M185.607 123.258C171.568 98.0583 157.515 72.8606 143.458 47.6536C142.181 45.3661 138.85 45.3661 137.574 47.6536C123.519 72.8606 109.482 98.0583 95.427 123.263C94.1349 125.576 95.7732 128.567 98.3688 128.567H182.667C185.259 128.567 186.901 125.576 185.603 123.263"/>
</mask>
<path d="M185.607 123.258C171.568 98.0583 157.515 72.8606 143.458 47.6536C142.181 45.3661 138.85 45.3661 137.574 47.6536C123.519 72.8606 109.482 98.0583 95.427 123.263C94.1349 125.576 95.7732 128.567 98.3688 128.567H182.667C185.259 128.567 186.901 125.576 185.603 123.263" fill="#0B7D70"/>
<path d="M143.458 47.6536L144.331 47.1666L144.331 47.1664L143.458 47.6536ZM137.574 47.6536L136.701 47.1664L136.701 47.1666L137.574 47.6536ZM95.427 123.263L96.3 123.751L96.3004 123.75L95.427 123.263ZM186.481 122.772C172.441 97.5714 158.388 72.3735 144.331 47.1666L142.584 48.1407C156.642 73.3477 170.694 98.5452 184.733 123.745L186.481 122.772ZM144.331 47.1664C142.673 44.1952 138.359 44.1952 136.701 47.1664L138.447 48.1408C139.342 46.537 141.69 46.537 142.584 48.1408L144.331 47.1664ZM136.701 47.1666C122.645 72.3751 108.609 97.5703 94.5536 122.776L96.3004 123.75C110.355 98.5463 124.393 73.3462 138.447 48.1406L136.701 47.1666ZM94.554 122.775C92.9234 125.695 94.9413 129.567 98.3688 129.567V127.567C96.6051 127.567 95.3463 125.458 96.3 123.751L94.554 122.775ZM98.3688 129.567H182.667V127.567H98.3688V129.567ZM182.667 129.567C186.089 129.567 188.115 125.695 186.474 122.773L184.731 123.753C185.688 125.458 184.428 127.567 182.667 127.567V129.567Z" fill="#5A5A5A" mask="url(#path-3-inside-2)"/>
</g>
<g id="Vector_3">
<mask id="path-5-inside-3" fill="white">
<path d="M185.607 108.368C171.568 86.5855 157.515 64.8168 143.458 43.0316C142.181 41.0559 138.85 41.0559 137.574 43.0316C123.519 64.8121 109.482 86.5832 95.427 108.368C94.1349 110.368 95.7732 112.953 98.3688 112.953H182.667C185.259 112.953 186.901 110.368 185.603 108.368"/>
</mask>
<path d="M185.607 108.368C171.568 86.5855 157.515 64.8168 143.458 43.0316C142.181 41.0559 138.85 41.0559 137.574 43.0316C123.519 64.8121 109.482 86.5832 95.427 108.368C94.1349 110.368 95.7732 112.953 98.3688 112.953H182.667C185.259 112.953 186.901 110.368 185.603 108.368" fill="#2BB573"/>
<path d="M143.458 43.0316L144.298 42.4894L144.298 42.489L143.458 43.0316ZM137.574 43.0316L136.734 42.489L136.734 42.4894L137.574 43.0316ZM95.427 108.368L96.2668 108.911L96.2673 108.91L95.427 108.368ZM186.448 107.827C172.408 86.0435 158.355 64.2744 144.298 42.4894L142.617 43.5738C156.675 65.3592 170.727 87.1276 184.766 108.91L186.448 107.827ZM144.298 42.489C143.437 41.1564 141.93 40.5498 140.516 40.5498C139.102 40.5498 137.595 41.1564 136.734 42.489L138.414 43.5742C138.829 42.9311 139.626 42.5498 140.516 42.5498C141.406 42.5498 142.202 42.9311 142.618 43.5742L144.298 42.489ZM136.734 42.4894C122.679 64.2698 108.641 86.0416 94.5867 107.826L96.2673 108.91C110.323 87.1248 124.359 65.3544 138.414 43.5739L136.734 42.4894ZM94.5871 107.826C93.7063 109.188 93.837 110.759 94.5973 111.949C95.3528 113.131 96.7284 113.953 98.3688 113.953V111.953C97.4136 111.953 96.6722 111.482 96.2827 110.872C95.8979 110.27 95.8555 109.548 96.2668 108.911L94.5871 107.826ZM98.3688 113.953H182.667V111.953H98.3688V113.953ZM182.667 113.953C184.306 113.953 185.681 113.131 186.437 111.948C187.197 110.758 187.327 109.187 186.441 107.824L184.764 108.913C185.177 109.549 185.135 110.27 184.751 110.872C184.362 111.482 183.62 111.953 182.667 111.953V113.953Z" fill="#5A5A5A" mask="url(#path-5-inside-3)"/>
</g>
<g id="Vector_4">
<mask id="path-7-inside-4" fill="white">
<path d="M175.229 85.4161L142.372 25.1114C141.371 23.2903 138.778 23.2903 137.782 25.1114C126.834 45.2161 115.877 65.3185 104.925 85.4161C103.918 87.2677 105.196 89.656 107.219 89.656H172.93C174.953 89.656 176.227 87.2653 175.229 85.4161Z"/>
</mask>
<path d="M175.229 85.4161L142.372 25.1114C141.371 23.2903 138.778 23.2903 137.782 25.1114C126.834 45.2161 115.877 65.3185 104.925 85.4161C103.918 87.2677 105.196 89.656 107.219 89.656H172.93C174.953 89.656 176.227 87.2653 175.229 85.4161Z" fill="#0B7D70"/>
<path d="M142.372 25.1114L143.25 24.633L143.248 24.63L142.372 25.1114ZM137.782 25.1114L136.905 24.6317L136.904 24.6332L137.782 25.1114ZM104.925 85.4161L104.047 84.9376L104.046 84.9383L104.925 85.4161ZM176.108 84.9377L143.25 24.633L141.494 25.5899L174.351 85.8946L176.108 84.9377ZM143.248 24.63C141.869 22.119 138.281 22.1153 136.905 24.6317L138.66 25.5912C139.275 24.4653 140.874 24.4616 141.495 25.5928L143.248 24.63ZM136.904 24.6332C125.956 44.7377 114.999 64.8398 104.047 84.9376L105.803 85.8946C116.755 65.7971 127.713 45.6945 138.661 25.5897L136.904 24.6332ZM104.046 84.9383C102.73 87.359 104.33 90.656 107.219 90.656V88.656C106.063 88.656 105.106 87.1763 105.803 85.8939L104.046 84.9383ZM107.219 90.656H172.93V88.656H107.219V90.656ZM172.93 90.656C175.823 90.656 177.412 87.3554 176.109 84.9412L174.349 85.891C175.042 87.1753 174.084 88.656 172.93 88.656V90.656Z" fill="#5A5A5A" mask="url(#path-7-inside-4)"/>
</g>
<g id="Vector_5">
<mask id="path-9-inside-5" fill="white">
<path d="M176.97 69.1877C165.614 52.3057 154.261 35.4237 142.897 18.5393C141.865 17.0042 139.172 17.0042 138.138 18.5393C126.784 35.425 115.427 52.3078 104.065 69.1877C103.017 70.7393 104.348 72.7503 106.441 72.7503H174.585C176.678 72.7503 178.006 70.7393 176.961 69.1877"/>
</mask>
<path d="M176.97 69.1877C165.614 52.3057 154.261 35.4237 142.897 18.5393C141.865 17.0042 139.172 17.0042 138.138 18.5393C126.784 35.425 115.427 52.3078 104.065 69.1877C103.017 70.7393 104.348 72.7503 106.441 72.7503H174.585C176.678 72.7503 178.006 70.7393 176.961 69.1877" fill="#04A69C"/>
<path d="M142.897 18.5393L142.067 19.0972L142.067 19.0977L142.897 18.5393ZM138.138 18.5393L137.308 17.9806L137.308 17.9813L138.138 18.5393ZM104.065 69.1877L104.894 69.7474L104.894 69.7461L104.065 69.1877ZM177.799 68.6296C166.444 51.7477 155.091 34.8655 143.726 17.9809L142.067 19.0977C153.431 35.9819 164.784 52.8637 176.14 69.7459L177.799 68.6296ZM143.727 17.9814C142.981 16.8719 141.695 16.3879 140.518 16.3879C139.341 16.3879 138.055 16.8719 137.308 17.9806L138.967 19.098C139.254 18.6716 139.832 18.3879 140.518 18.3879C141.204 18.3879 141.781 18.6716 142.067 19.0972L143.727 17.9814ZM137.308 17.9813C125.954 34.8669 114.597 51.7496 103.235 68.6294L104.894 69.7461C116.256 52.8661 127.614 35.9831 138.968 19.0973L137.308 17.9813ZM103.236 68.6281C102.46 69.7769 102.58 71.1091 103.242 72.1046C103.896 73.0874 105.069 73.7503 106.441 73.7503V71.7503C105.72 71.7503 105.181 71.4076 104.908 70.9971C104.643 70.5993 104.622 70.1502 104.894 69.7474L103.236 68.6281ZM106.441 73.7503H174.585V71.7503H106.441V73.7503ZM174.585 73.7503C175.957 73.7503 177.129 73.0873 177.782 72.1044C178.444 71.109 178.564 69.7774 177.79 68.6289L176.131 69.7465C176.403 70.1496 176.381 70.5993 176.117 70.9973C175.844 71.4078 175.305 71.7503 174.585 71.7503V73.7503Z" fill="#5A5A5A" mask="url(#path-9-inside-5)"/>
</g>
<path id="Vector_6" d="M153.028 9.55327L146.848 15.647L148.19 24.3751L140.686 20.1705L133.087 24.19L134.63 15.497L128.59 9.25327L137.049 8.08608L140.917 0.20874L144.601 8.17983" fill="#FCEA2B"/>
<g id="red" opacity="0">
<circle id="red17" cx="163.5" cy="117.5" r="3" fill="#D22F27"/>
<circle id="red16" cx="130.5" cy="117.5" r="3" fill="#D22F27"/>
<circle id="red15" cx="179.5" cy="107.5" r="3" fill="#D22F27"/>
<circle id="red14" cx="146.5" cy="108.5" r="3" fill="#D22F27"/>
<circle id="red13" cx="162.5" cy="98.5" r="3" fill="#D22F27"/>
<circle id="red12" cx="113.5" cy="106.5" r="3" fill="#D22F27"/>
<circle id="red11" cx="129.5" cy="95.5" r="3" fill="#D22F27"/>
<circle id="red10" cx="166.5" cy="60.5" r="3" fill="#D22F27"/>
<circle id="red9" cx="147.5" cy="88.5" r="3" fill="#D22F27"/>
<circle id="red8" cx="112.5" cy="87.5" r="3" fill="#D22F27"/>
<circle id="red7" cx="147.5" cy="68.5" r="3" fill="#D22F27"/>
<circle id="red6" cx="113.5" cy="67.5" r="3" fill="#D22F27"/>
<circle id="red5" cx="130.5" cy="78.5" r="3" fill="#D22F27"/>
<circle id="red4" cx="164.5" cy="79.5" r="3" fill="#D22F27"/>
<circle id="red3" cx="132.5" cy="56.5" r="3" fill="#D22F27"/>
<circle id="red2" cx="137.5" cy="33.5" r="3" fill="#D22F27"/>
<circle id="red1" cx="149.5" cy="49.5" r="3" fill="#D22F27"/>
</g>
<g id="yellow" opacity="0">
<circle id="yellow15" cx="152.5" cy="118.5" r="3" fill="#FFF0BB"/>
<circle id="yellow14" cx="119.5" cy="115.5" r="3" fill="#FFF0BB"/>
<circle id="yellow13" cx="102.5" cy="107.5" r="3" fill="#FFF0BB"/>
<circle id="yellow12" cx="168.5" cy="107.5" r="3" fill="#FFF0BB"/>
<circle id="yellow11" cx="135.5" cy="107.5" r="3" fill="#FFF0BB"/>
<circle id="yellow10" cx="151.5" cy="98.5" r="3" fill="#FFF0BB"/>
<circle id="yellow9" cx="118.5" cy="96.5" r="3" fill="#FFF0BB"/>
<circle id="yellow8" cx="155.5" cy="58.5" r="3" fill="#FFF0BB"/>
<circle id="yellow7" cx="136.5" cy="87.5" r="3" fill="#FFF0BB"/>
<circle id="yellow6" cx="169.5" cy="88.5" r="3" fill="#FFF0BB"/>
<circle id="yellow5" cx="117.5" cy="77.5" r="3" fill="#FFF0BB"/>
<circle id="yellow4" cx="153.5" cy="78.5" r="3" fill="#FFF0BB"/>
<circle id="yellow3" cx="138.5" cy="45.5" r="3" fill="#FFF0BB"/>
<circle id="yellow2" cx="135.5" cy="67.5" r="3" fill="#FFF0BB"/>
<circle id="yellow1" cx="120.5" cy="57.5" r="3" fill="#FFF0BB"/>
</g>
<g id="pink" opacity="0">
<circle id="pink16" cx="174.5" cy="117.5" r="3" fill="#F3969A"/>
<circle id="pink15" cx="141.5" cy="118.5" r="3" fill="#F3969A"/>
<circle id="pink14" cx="108.5" cy="116.5" r="3" fill="#F3969A"/>
<circle id="pink13" cx="157.5" cy="108.5" r="3" fill="#F3969A"/>
<circle id="pink12" cx="124.5" cy="105.5" r="3" fill="#F3969A"/>
<circle id="pink11" cx="107.5" cy="97.5" r="3" fill="#F3969A"/>
<circle id="pink10" cx="173.5" cy="98.5" r="3" fill="#F3969A"/>
<circle id="pink9" cx="140.5" cy="97.5" r="3" fill="#F3969A"/>
<circle id="pink8" cx="159.5" cy="69.5" r="3" fill="#F3969A"/>
<circle id="pink7" cx="123.5" cy="86.5" r="3" fill="#F3969A"/>
<circle id="pink6" cx="158.5" cy="88.5" r="3" fill="#F3969A"/>
<circle id="pink5" cx="142.5" cy="78.5" r="3" fill="#F3969A"/>
<circle id="pink4" cx="143.5" cy="58.5" r="3" fill="#F3969A"/>
<circle id="pink3" cx="148.5" cy="38.5" r="3" fill="#F3969A"/>
<circle id="pink2" cx="126.5" cy="46.5" r="3" fill="#F3969A"/>
<circle id="pink1" cx="124.5" cy="68.5" r="3" fill="#F3969A"/>
</g>
</g>
<g id="openmoji:wrapped-gift">
<path id="Vector_7" d="M61.5807 87.5264C59.5652 83.7651 57.1502 81.8589 54.4021 81.8589C51.24 81.8589 47.956 84.4376 44.6383 89.5251C44.226 90.1585 43.8293 90.8024 43.4483 91.4564C43.0675 90.8023 42.6707 90.1583 42.2583 89.5251C38.9417 84.4376 35.6565 81.8589 32.4945 81.8589C29.7476 81.8589 27.3314 83.7651 25.3158 87.5264C23.8096 90.3414 23.934 92.5514 24.6545 93.7501C25.9543 95.9126 29.2769 97.1814 33.9524 98.0139C37.5429 98.6551 41.341 98.7501 43.2865 98.7501H43.6112C45.5555 98.7501 49.3548 98.6551 52.9441 98.0139C57.6184 97.1814 60.941 95.9114 62.2421 93.7501C62.9602 92.5501 63.0881 90.3414 61.5807 87.5264Z" fill="#D22F27"/>
<path id="Vector_8" d="M19.3104 115H66.3793V146.25H19.3104V115Z" fill="#FCEA2B"/>
<path id="Vector_9" d="M64.4362 114.375L20.5172 114.447V121.322L53.276 126.234L66.3793 128.125V114.447L64.4362 114.375Z" fill="#F1B31C"/>
<path id="Vector_10" d="M35.8617 145H51.0348V125.341L35.8617 122.232V145Z" fill="#EA5A47"/>
<path id="Vector_11" d="M16.8965 96.25H70V113.75H16.8965V96.25Z" fill="#FCEA2B"/>
<path id="Vector_12" d="M35.8617 97.5H51.0336V113.75H35.8617V97.5Z" fill="#EA5A47"/>
<path id="Vector_13" d="M51.0348 114.375L35.8617 114.4V123.593L51.0348 125.884V114.375Z" fill="#D22F27"/>
<g id="Group">
<path id="Vector_14" d="M65.2822 96.6965H20.9469" stroke="#5A5A5A" stroke-miterlimit="10" stroke-linecap="round" stroke-linejoin="round"/>
<path id="Vector_15" d="M20.9469 96.6965H16.8965V114.375H19.7412V145.804H67.1553V114.375H70V96.6965H65.2822" stroke="#5A5A5A" stroke-miterlimit="10" stroke-linecap="round" stroke-linejoin="round"/>
<path id="Vector_16" d="M19.7412 114.375H68.104" stroke="#5A5A5A" stroke-miterlimit="10" stroke-linecap="round" stroke-linejoin="round"/>
<path id="Vector_17" d="M61.5046 92.8126C61.9681 91.5876 62.0984 89.8214 60.9132 87.5264C58.9726 83.7651 56.6457 81.8589 54.0001 81.8589C50.9527 81.8589 47.7894 84.4376 44.5936 89.5251C44.1961 90.159 43.8138 90.8029 43.447 91.4564C43.081 90.8028 42.6991 90.1588 42.3017 89.5251C39.107 84.4376 35.9425 81.8589 32.8963 81.8589C30.2496 81.8589 27.9239 83.7651 25.9808 87.5264C24.8934 89.6389 24.9151 91.3026 25.2881 92.5101" stroke="#5A5A5A" stroke-miterlimit="10" stroke-linecap="round" stroke-linejoin="round"/>
<path id="Vector_18" d="M51.0348 145V125.341" stroke="#5A5A5A" stroke-miterlimit="10"/>
<path id="Vector_19" d="M35.8617 122.233V145" stroke="#5A5A5A" stroke-miterlimit="10"/>
<path id="Vector_20" d="M51.0348 113.75V97.5" stroke="#5A5A5A" stroke-miterlimit="10"/>
<path id="Vector_21" d="M35.8617 97.5V113.75" stroke="#5A5A5A" stroke-miterlimit="10"/>
<path id="Vector_22" d="M51.0348 125.884V114.375L35.8617 114.4V123.593" stroke="#5A5A5A" stroke-miterlimit="10"/>
</g>
</g>
<g id="openmoji:wrapped-gift_2">
<path id="Vector_23" d="M254.684 87.5264C252.669 83.7651 250.254 81.8589 247.506 81.8589C244.343 81.8589 241.059 84.4376 237.742 89.5251C237.33 90.1585 236.933 90.8024 236.552 91.4564C236.171 90.8023 235.774 90.1583 235.362 89.5251C232.045 84.4376 228.76 81.8589 225.598 81.8589C222.851 81.8589 220.435 83.7651 218.419 87.5264C216.913 90.3414 217.037 92.5514 217.758 93.7501C219.058 95.9126 222.38 97.1814 227.056 98.0139C230.646 98.6551 234.444 98.7501 236.39 98.7501H236.715C238.659 98.7501 242.458 98.6551 246.048 98.0139C250.722 97.1814 254.044 95.9114 255.346 93.7501C256.064 92.5501 256.192 90.3414 254.684 87.5264Z" fill="#D22F27"/>
<path id="Vector_24" d="M212.414 115H259.483V146.25H212.414V115Z" fill="#FCEA2B"/>
<path id="Vector_25" d="M257.54 114.375L213.621 114.447V121.322L246.379 126.234L259.483 128.125V114.447L257.54 114.375Z" fill="#F1B31C"/>
<path id="Vector_26" d="M228.965 145H244.138V125.341L228.965 122.232V145Z" fill="#EA5A47"/>
<path id="Vector_27" d="M210 96.25H263.103V113.75H210V96.25Z" fill="#FCEA2B"/>
<path id="Vector_28" d="M228.965 97.5H244.137V113.75H228.965V97.5Z" fill="#EA5A47"/>
<path id="Vector_29" d="M244.138 114.375L228.965 114.4V123.593L244.138 125.884V114.375Z" fill="#D22F27"/>
<g id="Group_2">
<path id="Vector_30" d="M258.386 96.6965H214.05" stroke="#5A5A5A" stroke-miterlimit="10" stroke-linecap="round" stroke-linejoin="round"/>
<path id="Vector_31" d="M214.05 96.6965H210V114.375H212.845V145.804H260.259V114.375H263.103V96.6965H258.386" stroke="#5A5A5A" stroke-miterlimit="10" stroke-linecap="round" stroke-linejoin="round"/>
<path id="Vector_32" d="M212.845 114.375H261.207" stroke="#5A5A5A" stroke-miterlimit="10" stroke-linecap="round" stroke-linejoin="round"/>
<path id="Vector_33" d="M254.608 92.8126C255.072 91.5876 255.202 89.8214 254.017 87.5264C252.076 83.7651 249.749 81.8589 247.104 81.8589C244.056 81.8589 240.893 84.4376 237.697 89.5251C237.3 90.159 236.917 90.8029 236.55 91.4564C236.184 90.8028 235.803 90.1588 235.405 89.5251C232.21 84.4376 229.046 81.8589 226 81.8589C223.353 81.8589 221.027 83.7651 219.084 87.5264C217.997 89.6389 218.019 91.3026 218.392 92.5101" stroke="#5A5A5A" stroke-miterlimit="10" stroke-linecap="round" stroke-linejoin="round"/>
<path id="Vector_34" d="M244.138 145V125.341" stroke="#5A5A5A" stroke-miterlimit="10"/>
<path id="Vector_35" d="M228.965 122.233V145" stroke="#5A5A5A" stroke-miterlimit="10"/>
<path id="Vector_36" d="M244.138 113.75V97.5" stroke="#5A5A5A" stroke-miterlimit="10"/>
<path id="Vector_37" d="M228.965 97.5V113.75" stroke="#5A5A5A" stroke-miterlimit="10"/>
<path id="Vector_38" d="M244.138 125.884V114.375L228.965 114.4V123.593" stroke="#5A5A5A" stroke-miterlimit="10"/>
</g>
</g>
</g>


<animate
	xlink:href="#red"
	attributeType="CSS"
	attributeName="opacity"
		   begin="1s"
		   values="1; 0; 0; 1"
           keyTimes="0; 0.2; 0.8; 1"
		   dur="3s"
		   repeatCount="indefinite"
		   fill="freeze"		   />

<animate
	xlink:href="#yellow"
	attributeType="CSS"
	attributeName="opacity"
		   begin="2s"
		   values="1; 0; 0; 1"
           keyTimes="0; 0.2; 0.8; 1"
		   dur="3s"
		   repeatCount="indefinite"
		   fill="freeze"		   />
		   
<animate
	xlink:href="#pink"
	attributeType="CSS"
	attributeName="opacity"
		   begin="3s"
		   values="1; 0; 0; 1"
           keyTimes="0; 0.2; 0.8; 1"
		   dur="3s"
		   repeatCount="indefinite"
		   fill="freeze"		   />


</svg>
