<svg width="200" height="150" viewBox="0 0 200 150" fill="none" xmlns="http://www.w3.org/2000/svg">
<g id="compress">
<g id="smallpdf">
<path id="Rectangle 10" d="M116 111H66C63.7909 111 62 109.209 62 107V57C62 54.7909 63.7909 53 66 53H102.39C103.325 53 104.232 53.3281 104.95 53.9271L118.561 65.269C119.473 66.029 120 67.1548 120 68.3419V87V107C120 109.209 118.209 111 116 111Z" fill="#F3969A" stroke="#5A5A5A" stroke-width="2"/>
<path id="Vector 33" d="M103 52.8333V63.1667C103 64.8235 104.343 66.1667 106 66.1667H119" stroke="#5A5A5A" stroke-width="2"/>
<g id="PDF">
<path d="M69.5766 65.7888C69.409 65.7888 69.271 65.7437 69.1626 65.6533C69.0542 65.563 69 65.448 69 65.3083V56.6472C69 56.5075 69.0542 56.3925 69.1626 56.3022C69.271 56.2118 69.409 56.1667 69.5766 56.1667H72.5335C73.2628 56.1667 73.9084 56.3022 74.4702 56.5732C75.032 56.8361 75.4706 57.2016 75.786 57.6697C76.1014 58.1379 76.2591 58.68 76.2591 59.296C76.2591 59.8956 76.1014 60.4295 75.786 60.8977C75.4706 61.3576 75.032 61.7231 74.4702 61.9942C73.9084 62.257 73.2628 62.3884 72.5335 62.3884H70.1532V65.3083C70.1532 65.448 70.099 65.563 69.9906 65.6533C69.8821 65.7437 69.7441 65.7888 69.5766 65.7888ZM70.1532 61.4644H72.5335C73.0361 61.4644 73.4846 61.3741 73.8788 61.1934C74.2731 61.0044 74.5786 60.7457 74.7955 60.4172C75.0222 60.0886 75.1355 59.7149 75.1355 59.296C75.1355 58.8607 75.0222 58.4788 74.7955 58.1502C74.5786 57.8217 74.2731 57.563 73.8788 57.3741C73.4846 57.1852 73.0361 57.0907 72.5335 57.0907H70.1532V61.4644Z" fill="#FFF0BB"/>
<path d="M78.6291 65.7888C78.4616 65.7888 78.3236 65.7437 78.2152 65.6533C78.1068 65.563 78.0525 65.448 78.0525 65.3083V56.6472C78.0525 56.5075 78.1068 56.3925 78.2152 56.3022C78.3236 56.2118 78.4616 56.1667 78.6291 56.1667H81.2903C82.138 56.1667 82.9117 56.2858 83.6115 56.524C84.3211 56.7539 84.9322 57.0866 85.4447 57.5219C85.9573 57.949 86.3515 58.4541 86.6275 59.0373C86.9133 59.6205 87.0562 60.2652 87.0562 60.9716C87.0562 61.678 86.9133 62.3268 86.6275 62.9182C86.3515 63.5014 85.9573 64.0106 85.4447 64.4459C84.9322 64.873 84.3211 65.2057 83.6115 65.4439C82.9117 65.6738 82.138 65.7888 81.2903 65.7888H78.6291ZM79.2057 64.9264H81.2903C82.1971 64.9264 82.9955 64.758 83.6854 64.4213C84.3852 64.0763 84.9322 63.6081 85.3265 63.0168C85.7207 62.4172 85.9178 61.7355 85.9178 60.9716C85.9178 60.2077 85.7207 59.5301 85.3265 58.9387C84.9322 58.3392 84.3852 57.871 83.6854 57.5342C82.9955 57.1975 82.1971 57.0291 81.2903 57.0291H79.2057V64.9264Z" fill="#FFF0BB"/>
<path d="M89.0895 65.7888C88.9318 65.7888 88.7939 65.7437 88.6756 65.6533C88.5672 65.5547 88.5129 65.4398 88.5129 65.3083V56.6472C88.5129 56.5075 88.5672 56.3925 88.6756 56.3022C88.784 56.2118 88.922 56.1667 89.0895 56.1667H96.0234C96.191 56.1667 96.329 56.2118 96.4374 56.3022C96.5458 56.3843 96.6 56.4952 96.6 56.6348C96.6 56.758 96.5458 56.8648 96.4374 56.9552C96.329 57.0455 96.191 57.0907 96.0234 57.0907H89.6661V60.4911H94.2936C94.4612 60.4911 94.5992 60.5363 94.7076 60.6266C94.816 60.717 94.8702 60.8279 94.8702 60.9593C94.8702 61.0907 94.816 61.2016 94.7076 61.2919C94.5992 61.3823 94.4612 61.4274 94.2936 61.4274H89.6661V65.3083C89.6661 65.4398 89.6119 65.5547 89.5035 65.6533C89.3951 65.7437 89.2571 65.7888 89.0895 65.7888Z" fill="#FFF0BB"/>
</g>
</g>
<path id="Vector 10" d="M153 99V14H163V99H153Z" fill="#78C2AD" stroke="#5A5A5A" stroke-width="2"/>
<path id="Vector 12" d="M153 91L163 81" stroke="#5A5A5A"/>
<path id="Vector 13" d="M153 86L163 76" stroke="#5A5A5A"/>
<path id="Vector 14" d="M153 81L163 71" stroke="#5A5A5A"/>
<path id="Vector 15" d="M153 96L163 86" stroke="#5A5A5A"/>
<path id="Vector 16" d="M153 76L163 66" stroke="#5A5A5A"/>
<path id="Vector 17" d="M153 71L163 61" stroke="#5A5A5A"/>
<path id="Vector 18" d="M153 101L163 91" stroke="#5A5A5A"/>
<path id="Vector 19" d="M153 106L163 96" stroke="#5A5A5A"/>
<path id="Vector 20" d="M153 47L163 37" stroke="#5A5A5A"/>
<path id="Vector 27" d="M151 24L161 14" stroke="#5A5A5A"/>
<path id="Vector 21" d="M153 52L163 42" stroke="#5A5A5A"/>
<path id="Vector 22" d="M153 57L163 47" stroke="#5A5A5A"/>
<path id="Vector 23" d="M153 42L163 32" stroke="#5A5A5A"/>
<path id="Vector 24" d="M153 37L163 27" stroke="#5A5A5A"/>
<path id="Vector 26" d="M158 21L163 16" stroke="#5A5A5A"/>
<path id="Vector 28" d="M153 22L157 18" stroke="#5A5A5A"/>
<path id="Vector 9" d="M122 51H48.6821C43.5304 51 41.7451 44.151 46.2413 41.6362L57.8625 35.1362C58.6084 34.719 59.4487 34.5 60.3033 34.5H138.5C141.261 34.5 143.5 36.7386 143.5 39.5V46C143.5 48.7614 145.739 51 148.5 51H165.5C168.261 51 170.5 53.2386 170.5 56V59V60.5C170.5 63.2614 168.261 65.5 165.5 65.5H154H132C129.239 65.5 127 63.2614 127 60.5V56C127 53.2386 124.761 51 122 51Z" fill="#78C2AD" stroke="#5A5A5A" stroke-width="2"/>
<path id="Vector 8" d="M122 113H48.6821C43.5304 113 41.7451 119.849 46.2413 122.364L57.8625 128.864C58.6084 129.281 59.4487 129.5 60.3033 129.5H138.5C141.261 129.5 143.5 127.261 143.5 124.5V118C143.5 115.239 145.739 113 148.5 113H165.5C168.261 113 170.5 110.761 170.5 108V105V103.5C170.5 100.739 168.261 98.5 165.5 98.5H154H132C129.239 98.5 127 100.739 127 103.5V108C127 110.761 124.761 113 122 113Z" fill="#78C2AD" stroke="#5A5A5A" stroke-width="2"/>
<path id="Vector 11" d="M169.929 34H147.071C145.745 34 144.473 33.4732 143.536 32.5355L133.544 22.5444C130.76 19.7603 132.732 15 136.669 15C137.842 15 138.966 15.4656 139.794 16.2944L143.536 20.0355C144.473 20.9732 145.745 21.5 147.071 21.5H169.929C171.255 21.5 172.527 20.9732 173.464 20.0355L177.206 16.2944C178.034 15.4656 179.158 15 180.331 15C184.268 15 186.24 19.7603 183.456 22.5444L173.464 32.5355C172.527 33.4732 171.255 34 169.929 34Z" fill="#FFF0BB" stroke="#5A5A5A" stroke-width="2"/>
</g>
</svg>
