<svg width="200" height="150" viewBox="0 0 200 150" fill="none" xmlns="http://www.w3.org/2000/svg"  xmlns:xlink="http://www.w3.org/1999/xlink">
<g id="in_image">
<g id="smallpdf" opacity="0.5">
<path id="Rectangle 10" d="M73 134H23C20.7909 134 19 132.209 19 130V68C19 65.7909 20.7909 64 23 64H59.1289C60.1898 64 61.2072 64.4214 61.9574 65.1716L75.8284 79.0426C76.5786 79.7928 77 80.8102 77 81.8711V105V130C77 132.209 75.2091 134 73 134Z" fill="#F3969A" stroke="#5A5A5A" stroke-width="2"/>
<path id="Vector 33" d="M60 64V77C60 78.6569 61.3431 80 63 80H76" stroke="#5A5A5A" stroke-width="2"/>
<g id="PDF">
<path d="M26.5766 79.5466C26.409 79.5466 26.271 79.4924 26.1626 79.384C26.0542 79.2755 26 79.1376 26 78.97V68.5766C26 68.409 26.0542 68.271 26.1626 68.1626C26.271 68.0542 26.409 68 26.5766 68H29.5335C30.2628 68 30.9084 68.1626 31.4702 68.4879C32.032 68.8033 32.4706 69.2419 32.786 69.8037C33.1014 70.3655 33.2591 71.016 33.2591 71.7552C33.2591 72.4747 33.1014 73.1154 32.786 73.6772C32.4706 74.2291 32.032 74.6678 31.4702 74.993C30.9084 75.3084 30.2628 75.4661 29.5335 75.4661H27.1532V78.97C27.1532 79.1376 27.099 79.2755 26.9906 79.384C26.8821 79.4924 26.7441 79.5466 26.5766 79.5466ZM27.1532 74.3573H29.5335C30.0361 74.3573 30.4846 74.2489 30.8788 74.032C31.2731 73.8053 31.5786 73.4949 31.7955 73.1006C32.0222 72.7064 32.1355 72.2579 32.1355 71.7552C32.1355 71.2328 32.0222 70.7745 31.7955 70.3803C31.5786 69.986 31.2731 69.6756 30.8788 69.4489C30.4846 69.2222 30.0361 69.1088 29.5335 69.1088H27.1532V74.3573Z" fill="#FFF0BB"/>
<path d="M35.6291 79.5466C35.4616 79.5466 35.3236 79.4924 35.2152 79.384C35.1068 79.2755 35.0525 79.1376 35.0525 78.97V68.5766C35.0525 68.409 35.1068 68.271 35.2152 68.1626C35.3236 68.0542 35.4616 68 35.6291 68H38.2903C39.138 68 39.9117 68.1429 40.6115 68.4287C41.3211 68.7047 41.9322 69.1039 42.4447 69.6263C42.9573 70.1388 43.3515 70.745 43.6275 71.4448C43.9133 72.1446 44.0562 72.9183 44.0562 73.7659C44.0562 74.6135 43.9133 75.3922 43.6275 76.1018C43.3515 76.8016 42.9573 77.4127 42.4447 77.9351C41.9322 78.4476 41.3211 78.8468 40.6115 79.1326C39.9117 79.4086 39.138 79.5466 38.2903 79.5466H35.6291ZM36.2057 78.5117H38.2903C39.1971 78.5117 39.9955 78.3096 40.6854 77.9055C41.3852 77.4916 41.9322 76.9298 42.3265 76.2201C42.7207 75.5006 42.9178 74.6825 42.9178 73.7659C42.9178 72.8493 42.7207 72.0361 42.3265 71.3265C41.9322 70.607 41.3852 70.0452 40.6854 69.6411C39.9955 69.237 39.1971 69.0349 38.2903 69.0349H36.2057V78.5117Z" fill="#FFF0BB"/>
<path d="M46.0895 79.5466C45.9318 79.5466 45.7939 79.4924 45.6756 79.384C45.5672 79.2657 45.5129 79.1277 45.5129 78.97V68.5766C45.5129 68.409 45.5672 68.271 45.6756 68.1626C45.784 68.0542 45.922 68 46.0895 68H53.0234C53.191 68 53.329 68.0542 53.4374 68.1626C53.5458 68.2612 53.6 68.3942 53.6 68.5618C53.6 68.7096 53.5458 68.8378 53.4374 68.9462C53.329 69.0546 53.191 69.1088 53.0234 69.1088H46.6661V73.1893H51.2936C51.4612 73.1893 51.5992 73.2435 51.7076 73.3519C51.816 73.4604 51.8702 73.5934 51.8702 73.7511C51.8702 73.9088 51.816 74.0419 51.7076 74.1503C51.5992 74.2587 51.4612 74.3129 51.2936 74.3129H46.6661V78.97C46.6661 79.1277 46.6119 79.2657 46.5035 79.384C46.3951 79.4924 46.2571 79.5466 46.0895 79.5466Z" fill="#FFF0BB"/>
</g>
</g>
<path id="Arrow 1" d="M79.0607 30.0607C79.6464 29.4749 79.6464 28.5251 79.0607 27.9393L69.5147 18.3934C68.9289 17.8076 67.9792 17.8076 67.3934 18.3934C66.8076 18.9792 66.8076 19.9289 67.3934 20.5147L75.8787 29L67.3934 37.4853C66.8076 38.0711 66.8076 39.0208 67.3934 39.6066C67.9792 40.1924 68.9289 40.1924 69.5147 39.6066L79.0607 30.0607ZM49.5 59C49.5 51.4699 49.5377 45.9464 50.0374 41.8373C50.5379 37.7206 51.4729 35.332 53.013 33.8205C54.5557 32.3063 56.9643 31.4176 61.0617 30.9595C65.1508 30.5022 70.6051 30.5 78 30.5V27.5C70.6779 27.5 65.0237 27.4978 60.7284 27.978C56.4414 28.4574 53.1895 29.4437 50.9116 31.6795C48.6308 33.918 47.5847 37.1544 47.0593 41.4752C46.533 45.8036 46.5 51.5301 46.5 59H49.5Z" fill="#5A5A5A"/>
<g id="image">
<path id="Rectangle 2" d="M179 134H89C86.7909 134 85 132.209 85 130V20C85 17.7909 86.7909 16 89 16H179C181.209 16 183 17.7909 183 20V130C183 132.209 181.209 134 179 134Z" fill="#F3969A" stroke="#5A5A5A" stroke-width="2"/>
<path id="Rectangle 2_2" d="M179 134H89C86.7909 134 85 132.209 85 130V100C85 97.7909 86.7909 96 89 96H137.5H179C181.209 96 183 97.7909 183 100V130C183 132.209 181.209 134 179 134Z" fill="#DAECFC" stroke="#5A5A5A" stroke-width="2"/>
<circle id="Ellipse 18" cx="157" cy="36" r="9.5" fill="#FFF0BB" stroke="#5A5A5A"/>
<path id="Polygon 7" d="M145.876 96.0001L158 75.0001L170.124 96.0001H145.876Z" fill="#78C2AD" stroke="#5A5A5A"/>
<path id="Polygon 8" d="M155.876 96.0001L168 75.0001L180.124 96.0001H155.876Z" fill="#78C2AD" stroke="#5A5A5A"/>
<path id="Polygon 9" d="M138.876 96.0001L151 75.0001L163.124 96.0001H138.876Z" fill="#78C2AD" stroke="#5A5A5A"/>
<path id="Star 1" d="M113 41.9999L113.224 42.6909H113.951L113.363 43.118L113.588 43.8089L113 43.3819L112.412 43.8089L112.637 43.118L112.049 42.6909H112.775L113 41.9999Z" fill="white"/>
<path id="Star 2" d="M94 49L94.2245 49.691H94.9511L94.3633 50.1181L94.5878 50.8091L94 50.382L93.4122 50.8091L93.6368 50.1181L93.049 49.691H93.7755L94 49Z" fill="white"/>
<path id="Star 4" d="M99 28.0001L99.2245 28.6911H99.9511L99.3633 29.1181L99.5878 29.8091L99 29.382L98.4122 29.8091L98.6368 29.1181L98.049 28.6911H98.7755L99 28.0001Z" fill="white"/>
<path id="Star 5" d="M130 28.0001L130.225 28.6911H130.951L130.363 29.1181L130.588 29.8091L130 29.382L129.412 29.8091L129.637 29.1181L129.049 28.6911H129.775L130 28.0001Z" fill="white"/>
<path id="Star 6" d="M114 28.0001L114.225 28.6911H114.951L114.363 29.1181L114.588 29.8091L114 29.382L113.412 29.8091L113.637 29.1181L113.049 28.6911H113.776L114 28.0001Z" fill="white"/>
<path id="Star 12" d="M113 53.0001L113.224 53.6911H113.951L113.363 54.1181L113.588 54.8091L113 54.382L112.412 54.8091L112.637 54.1181L112.049 53.6911H112.775L113 53.0001Z" fill="white"/>
<path id="Star 13" d="M134 51L134.225 51.6909H134.951L134.363 52.118L134.588 52.809L134 52.3819L133.412 52.809L133.637 52.118L133.049 51.6909H133.776L134 51Z" fill="white"/>
<path id="Star 14" d="M125 61.9999L125.225 62.6909H125.951L125.363 63.118L125.588 63.8089L125 63.3819L124.412 63.8089L124.637 63.118L124.049 62.6909H124.775L125 61.9999Z" fill="white"/>
<g id="Vector 31">
<path d="M99.7138 110.619L92.2772 101.191C91.7599 100.535 92.2271 99.5715 93.0623 99.5715H111V88.8572H101.483C100.778 88.8572 100.294 88.1465 100.553 87.4903L109.07 65.8947C109.475 64.8679 111 65.1578 111 66.2616V88.8572V99.5715H128.938C129.773 99.5715 130.24 100.535 129.723 101.191L122.286 110.619C122.097 110.86 121.807 111 121.501 111H100.499C100.193 111 99.9034 110.86 99.7138 110.619Z" fill="#78C2AD"/>
<path d="M111 99.5715H128.938C129.773 99.5715 130.24 100.535 129.723 101.191L122.286 110.619C122.097 110.86 121.807 111 121.501 111H100.499C100.193 111 99.9034 110.86 99.7138 110.619L92.2772 101.191C91.7599 100.535 92.2271 99.5715 93.0623 99.5715H111ZM111 99.5715V66.2616C111 65.1578 109.475 64.8679 109.07 65.8947L100.553 87.4903C100.294 88.1465 100.778 88.8572 101.483 88.8572H121.986" stroke="#5A5A5A" stroke-width="2"/>
</g>
<g id="Group 14" opacity="0">
<path id="Vector 32" d="M129 114C124.706 111.5 123.802 108.5 124.033 103" stroke="#5A5A5A"/>
<line id="Line 7" x1="132" y1="117.5" x2="127" y2="117.5" stroke="#5A5A5A" />
<circle id="Ellipse 19" cx="129.5" cy="115.5" r="1.5" fill="#5A5A5A" />
<line id="Line 8" x1="129.5" y1="118" x2="129.5" y2="122" stroke="#5A5A5A" />
<path id="Ellipse 20" d="M132 120.5C132 121.881 130.881 123 129.5 123C128.119 123 127 121.881 127 120.5C127 119.119 128.119 122 129.5 122C130.881 122 132 119.119 132 120.5Z" fill="#5A5A5A" />
</g>
</g>
</g>

<animateMotion
    xlink:href="#Vector 31"
      dur="10s"
      begin="2s"
	  end="62s"
      repeatCount="indefinite"
      fill="freeze"
    path="M0 0C0 0 36.2492 1.69283 39.6476 5.35154C43.046 9.01025 20.9566 11.4676 12.4607 9.01025C3.96476 6.55291 0 0 0 0Z"
	id = "swim"	/>

<rect>
  <animate
	xlink:href="#Group 14"
	attributeType="CSS"
	attributeName="opacity"
		   begin="swim.end + 1s"
           from="0"
		   to="1"
		   dur="2s"
		   repeatCount="1"
		   fill="freeze"		   />
</rect>

</svg>
