<svg width="200" height="150" viewBox="0 0 200 150" fill="none" xmlns="http://www.w3.org/2000/svg"  xmlns:xlink="http://www.w3.org/1999/xlink">
<g id="in_image">
<g id="smallpdf" opacity="0.5">
<path id="Rectangle 10" d="M73 134H23C20.7909 134 19 132.209 19 130V68C19 65.7909 20.7909 64 23 64H59.1289C60.1898 64 61.2072 64.4214 61.9574 65.1716L75.8284 79.0426C76.5786 79.7928 77 80.8102 77 81.8711V105V130C77 132.209 75.2091 134 73 134Z" fill="#F3969A" stroke="#5A5A5A" stroke-width="2"/>
<path id="Vector 33" d="M60 64V77C60 78.6569 61.3431 80 63 80H76" stroke="#5A5A5A" stroke-width="2"/>
<rect id="Rectangle 15" x="16" y="103.6" width="38.4" height="18" rx="2" fill="#5A5A5A"/>
<g id="PDF">
<path d="M19.6045 119.8C19.4005 119.8 19.2325 119.734 19.1005 119.602C18.9685 119.47 18.9025 119.302 18.9025 119.098V106.444C18.9025 106.24 18.9685 106.072 19.1005 105.94C19.2325 105.808 19.4005 105.742 19.6045 105.742H23.2045C24.0925 105.742 24.8785 105.94 25.5625 106.336C26.2465 106.72 26.7805 107.254 27.1645 107.938C27.5485 108.622 27.7405 109.414 27.7405 110.314C27.7405 111.19 27.5485 111.97 27.1645 112.654C26.7805 113.326 26.2465 113.86 25.5625 114.256C24.8785 114.64 24.0925 114.832 23.2045 114.832H20.3065V119.098C20.3065 119.302 20.2405 119.47 20.1085 119.602C19.9765 119.734 19.8085 119.8 19.6045 119.8ZM20.3065 113.482H23.2045C23.8165 113.482 24.3625 113.35 24.8425 113.086C25.3225 112.81 25.6945 112.432 25.9585 111.952C26.2345 111.472 26.3725 110.926 26.3725 110.314C26.3725 109.678 26.2345 109.12 25.9585 108.64C25.6945 108.16 25.3225 107.782 24.8425 107.506C24.3625 107.23 23.8165 107.092 23.2045 107.092H20.3065V113.482Z" fill="#F3969A"/>
<path d="M30.626 119.8C30.422 119.8 30.254 119.734 30.122 119.602C29.99 119.47 29.924 119.302 29.924 119.098V106.444C29.924 106.24 29.99 106.072 30.122 105.94C30.254 105.808 30.422 105.742 30.626 105.742H33.866C34.898 105.742 35.84 105.916 36.692 106.264C37.556 106.6 38.3 107.086 38.924 107.722C39.548 108.346 40.028 109.084 40.364 109.936C40.712 110.788 40.886 111.73 40.886 112.762C40.886 113.794 40.712 114.742 40.364 115.606C40.028 116.458 39.548 117.202 38.924 117.838C38.3 118.462 37.556 118.948 36.692 119.296C35.84 119.632 34.898 119.8 33.866 119.8H30.626ZM31.328 118.54H33.866C34.97 118.54 35.942 118.294 36.782 117.802C37.634 117.298 38.3 116.614 38.7799 115.75C39.26 114.874 39.5 113.878 39.5 112.762C39.5 111.646 39.26 110.656 38.7799 109.792C38.3 108.916 37.634 108.232 36.782 107.74C35.942 107.248 34.97 107.002 33.866 107.002H31.328V118.54Z" fill="#F3969A"/>
<path d="M43.3615 119.8C43.1695 119.8 43.0015 119.734 42.8575 119.602C42.7255 119.458 42.6595 119.29 42.6595 119.098V106.444C42.6595 106.24 42.7255 106.072 42.8575 105.94C42.9895 105.808 43.1575 105.742 43.3615 105.742H51.8035C52.0075 105.742 52.1755 105.808 52.3075 105.94C52.4395 106.06 52.5055 106.222 52.5055 106.426C52.5055 106.606 52.4395 106.762 52.3075 106.894C52.1755 107.026 52.0075 107.092 51.8035 107.092H44.0635V112.06H49.6975C49.9015 112.06 50.0695 112.126 50.2015 112.258C50.3335 112.39 50.3995 112.552 50.3995 112.744C50.3995 112.936 50.3335 113.098 50.2015 113.23C50.0695 113.362 49.9015 113.428 49.6975 113.428H44.0635V119.098C44.0635 119.29 43.9975 119.458 43.8655 119.602C43.7335 119.734 43.5655 119.8 43.3615 119.8Z" fill="#F3969A"/>
</g>
<line id="Line 6" x1="25.6" y1="91.2" x2="70.6" y2="91.2" stroke="#5A5A5A" stroke-width="2"/>
<line id="Line 6_2" x1="25.6" y1="75" x2="55.6" y2="75" stroke="#5A5A5A" stroke-width="2"/>
<line id="Line 7" x1="25.6" y1="80.4" x2="55.6" y2="80.4" stroke="#5A5A5A" stroke-width="2"/>
<line id="Line 8" x1="25.6" y1="85.8" x2="70.6" y2="85.8" stroke="#5A5A5A" stroke-width="2"/>
</g>
<path id="Arrow 1" d="M79.0607 30.0607C79.6464 29.4749 79.6464 28.5251 79.0607 27.9393L69.5147 18.3934C68.9289 17.8076 67.9792 17.8076 67.3934 18.3934C66.8076 18.9792 66.8076 19.9289 67.3934 20.5147L75.8787 29L67.3934 37.4853C66.8076 38.0711 66.8076 39.0208 67.3934 39.6066C67.9792 40.1924 68.9289 40.1924 69.5147 39.6066L79.0607 30.0607ZM49.5 59C49.5 51.4699 49.5377 45.9464 50.0374 41.8373C50.5379 37.7206 51.4729 35.332 53.013 33.8205C54.5557 32.3063 56.9643 31.4176 61.0617 30.9595C65.1508 30.5022 70.6051 30.5 78 30.5V27.5C70.6779 27.5 65.0237 27.4978 60.7284 27.978C56.4414 28.4574 53.1895 29.4437 50.9116 31.6795C48.6308 33.918 47.5847 37.1544 47.0593 41.4752C46.533 45.8036 46.5 51.5301 46.5 59H49.5Z" fill="#5A5A5A"/>
<g id="image">
<path id="Rectangle 2" d="M179 134H89C86.7909 134 85 132.209 85 130V20C85 17.7909 86.7909 16 89 16H179C181.209 16 183 17.7909 183 20V130C183 132.209 181.209 134 179 134Z" fill="#F3969A" stroke="#5A5A5A" stroke-width="2"/>
<path id="Rectangle 2_2" d="M179 134H89C86.7909 134 85 132.209 85 130V100C85 97.7909 86.7909 96 89 96H137.5H179C181.209 96 183 97.7909 183 100V130C183 132.209 181.209 134 179 134Z" fill="#DAECFC" stroke="#5A5A5A" stroke-width="2"/>
<circle id="Ellipse 18" cx="157" cy="36" r="9.5" fill="#FFF0BB" stroke="#5A5A5A"/>
<path id="Polygon 7" d="M145.876 96.0001L158 75.0001L170.124 96.0001H145.876Z" fill="#78C2AD" stroke="#5A5A5A"/>
<path id="Polygon 8" d="M155.876 96.0001L168 75.0001L180.124 96.0001H155.876Z" fill="#78C2AD" stroke="#5A5A5A"/>
<path id="Polygon 9" d="M138.876 96.0001L151 75.0001L163.124 96.0001H138.876Z" fill="#78C2AD" stroke="#5A5A5A"/>
<path id="Star 1" d="M113 41.9999L113.224 42.6909H113.951L113.363 43.118L113.588 43.8089L113 43.3819L112.412 43.8089L112.637 43.118L112.049 42.6909H112.775L113 41.9999Z" fill="white"/>
<path id="Star 2" d="M94 49L94.2245 49.691H94.9511L94.3633 50.1181L94.5878 50.8091L94 50.382L93.4122 50.8091L93.6368 50.1181L93.049 49.691H93.7755L94 49Z" fill="white"/>
<path id="Star 4" d="M99 28.0001L99.2245 28.6911H99.9511L99.3633 29.1181L99.5878 29.8091L99 29.382L98.4122 29.8091L98.6368 29.1181L98.049 28.6911H98.7755L99 28.0001Z" fill="white"/>
<path id="Star 5" d="M130 28.0001L130.225 28.6911H130.951L130.363 29.1181L130.588 29.8091L130 29.382L129.412 29.8091L129.637 29.1181L129.049 28.6911H129.775L130 28.0001Z" fill="white"/>
<path id="Star 6" d="M114 28.0001L114.225 28.6911H114.951L114.363 29.1181L114.588 29.8091L114 29.382L113.412 29.8091L113.637 29.1181L113.049 28.6911H113.776L114 28.0001Z" fill="white"/>
<path id="Star 12" d="M113 53.0001L113.224 53.6911H113.951L113.363 54.1181L113.588 54.8091L113 54.382L112.412 54.8091L112.637 54.1181L112.049 53.6911H112.775L113 53.0001Z" fill="white"/>
<path id="Star 13" d="M134 51L134.225 51.6909H134.951L134.363 52.118L134.588 52.809L134 52.3819L133.412 52.809L133.637 52.118L133.049 51.6909H133.776L134 51Z" fill="white"/>
<path id="Star 14" d="M125 61.9999L125.225 62.6909H125.951L125.363 63.118L125.588 63.8089L125 63.3819L124.412 63.8089L124.637 63.118L124.049 62.6909H124.775L125 61.9999Z" fill="white"/>
<g id="Vector 31">
<path d="M99.7138 110.619L92.2772 101.191C91.7599 100.535 92.2271 99.5715 93.0623 99.5715H111V88.8572H101.483C100.778 88.8572 100.294 88.1465 100.553 87.4903L109.07 65.8947C109.475 64.8679 111 65.1578 111 66.2616V88.8572V99.5715H128.938C129.773 99.5715 130.24 100.535 129.723 101.191L122.286 110.619C122.097 110.86 121.807 111 121.501 111H100.499C100.193 111 99.9034 110.86 99.7138 110.619Z" fill="#78C2AD"/>
<path d="M111 99.5715H128.938C129.773 99.5715 130.24 100.535 129.723 101.191L122.286 110.619C122.097 110.86 121.807 111 121.501 111H100.499C100.193 111 99.9034 110.86 99.7138 110.619L92.2772 101.191C91.7599 100.535 92.2271 99.5715 93.0623 99.5715H111ZM111 99.5715V66.2616C111 65.1578 109.475 64.8679 109.07 65.8947L100.553 87.4903C100.294 88.1465 100.778 88.8572 101.483 88.8572H121.986" stroke="#5A5A5A" stroke-width="2"/>
</g>
<g id="Group 14" opacity="0">
<path id="Vector 32" d="M129 114C124.706 111.5 123.802 108.5 124.033 103" stroke="#5A5A5A"/>
<line id="Line 7" x1="132" y1="117.5" x2="127" y2="117.5" stroke="#5A5A5A" />
<circle id="Ellipse 19" cx="129.5" cy="115.5" r="1.5" fill="#5A5A5A" />
<line id="Line 8" x1="129.5" y1="118" x2="129.5" y2="122" stroke="#5A5A5A" />
<path id="Ellipse 20" d="M132 120.5C132 121.881 130.881 123 129.5 123C128.119 123 127 121.881 127 120.5C127 119.119 128.119 122 129.5 122C130.881 122 132 119.119 132 120.5Z" fill="#5A5A5A" />
</g>
</g>
</g>

<animateMotion
    xlink:href="#Vector 31"
      dur="10s"
      begin="2s"
	  end="62s"
      repeatCount="indefinite"
      fill="freeze"
    path="M0 0C0 0 36.2492 1.69283 39.6476 5.35154C43.046 9.01025 20.9566 11.4676 12.4607 9.01025C3.96476 6.55291 0 0 0 0Z"
	id = "swim"	/>

<rect>
  <animate
	xlink:href="#Group 14"
	attributeType="CSS"
	attributeName="opacity"
		   begin="swim.end + 1s"
           from="0"
		   to="1"
		   dur="2s"
		   repeatCount="1"
		   fill="freeze"		   />
</rect>

</svg>
