<svg width="215" height="160" viewBox="0 0 215 160" fill="none" xmlns="http://www.w3.org/2000/svg" xmlns:xlink="http://www.w3.org/1999/xlink">
<g id="in_office">
<path id="Arrow 1" d="M71.0607 41.0607C71.6464 40.4749 71.6464 39.5251 71.0607 38.9393L61.5147 29.3934C60.9289 28.8076 59.9792 28.8076 59.3934 29.3934C58.8076 29.9792 58.8076 30.9289 59.3934 31.5147L67.8787 40L59.3934 48.4853C58.8076 49.0711 58.8076 50.0208 59.3934 50.6066C59.9792 51.1924 60.9289 51.1924 61.5147 50.6066L71.0607 41.0607ZM41.5 70C41.5 62.4699 41.5377 56.9464 42.0374 52.8373C42.5379 48.7206 43.4729 46.332 45.013 44.8205C46.5557 43.3063 48.9643 42.4176 53.0617 41.9595C57.1508 41.5022 62.6051 41.5 70 41.5V38.5C62.6779 38.5 57.0237 38.4978 52.7284 38.978C48.4414 39.4574 45.1895 40.4437 42.9116 42.6795C40.6308 44.918 39.5847 48.1544 39.0593 52.4752C38.533 56.8036 38.5 62.5301 38.5 70H41.5Z" fill="#5A5A5A"/>
<g id="micro">
<rect id="Rectangle 10" x="76" y="90.75" width="54.25" height="54.25" fill="#DAECFC" stroke="#5A5A5A" stroke-width="2"/>
<rect id="Rectangle 11" x="139.75" y="90.75" width="54.25" height="54.25" fill="#FFF0BB" stroke="#5A5A5A" stroke-width="2"/>
<rect id="Rectangle 12" x="76" y="27" width="54.25" height="54.25" fill="#F3969A" stroke="#5A5A5A" stroke-width="2"/>
<rect id="Rectangle 13" x="139.75" y="27" width="54.25" height="54.25" fill="#78C2AD" stroke="#5A5A5A" stroke-width="2"/>
</g>
<g id="smallpdf" opacity="0.5">
<path id="Rectangle 10_2" d="M65 145H15C12.7909 145 11 143.209 11 141V79C11 76.7909 12.7909 75 15 75H51.1289C52.1898 75 53.2072 75.4214 53.9574 76.1716L67.8284 90.0426C68.5786 90.7928 69 91.8102 69 92.8711V116V141C69 143.209 67.2091 145 65 145Z" fill="#F3969A" stroke="#5A5A5A" stroke-width="2"/>
<path id="Vector 33" d="M52 75V88C52 89.6569 53.3431 91 55 91H68" stroke="#5A5A5A" stroke-width="2"/>
<g id="PDF">
<path d="M18.5766 90.5466C18.409 90.5466 18.271 90.4924 18.1626 90.384C18.0542 90.2755 18 90.1376 18 89.97V79.5766C18 79.409 18.0542 79.271 18.1626 79.1626C18.271 79.0542 18.409 79 18.5766 79H21.5335C22.2628 79 22.9084 79.1626 23.4702 79.4879C24.032 79.8033 24.4706 80.2419 24.786 80.8037C25.1014 81.3655 25.2591 82.016 25.2591 82.7552C25.2591 83.4747 25.1014 84.1154 24.786 84.6772C24.4706 85.2291 24.032 85.6678 23.4702 85.993C22.9084 86.3084 22.2628 86.4661 21.5335 86.4661H19.1532V89.97C19.1532 90.1376 19.099 90.2755 18.9906 90.384C18.8821 90.4924 18.7441 90.5466 18.5766 90.5466ZM19.1532 85.3573H21.5335C22.0361 85.3573 22.4846 85.2489 22.8788 85.032C23.2731 84.8053 23.5786 84.4949 23.7955 84.1006C24.0222 83.7064 24.1355 83.2579 24.1355 82.7552C24.1355 82.2328 24.0222 81.7745 23.7955 81.3803C23.5786 80.986 23.2731 80.6756 22.8788 80.4489C22.4846 80.2222 22.0361 80.1088 21.5335 80.1088H19.1532V85.3573Z" fill="#FFF0BB"/>
<path d="M27.6291 90.5466C27.4616 90.5466 27.3236 90.4924 27.2152 90.384C27.1068 90.2755 27.0525 90.1376 27.0525 89.97V79.5766C27.0525 79.409 27.1068 79.271 27.2152 79.1626C27.3236 79.0542 27.4616 79 27.6291 79H30.2903C31.138 79 31.9117 79.1429 32.6115 79.4287C33.3211 79.7047 33.9322 80.1039 34.4447 80.6263C34.9573 81.1388 35.3515 81.745 35.6275 82.4448C35.9133 83.1446 36.0562 83.9183 36.0562 84.7659C36.0562 85.6135 35.9133 86.3922 35.6275 87.1018C35.3515 87.8016 34.9573 88.4127 34.4447 88.9351C33.9322 89.4476 33.3211 89.8468 32.6115 90.1326C31.9117 90.4086 31.138 90.5466 30.2903 90.5466H27.6291ZM28.2057 89.5117H30.2903C31.1971 89.5117 31.9955 89.3096 32.6854 88.9055C33.3852 88.4916 33.9322 87.9298 34.3265 87.2201C34.7207 86.5006 34.9178 85.6825 34.9178 84.7659C34.9178 83.8493 34.7207 83.0361 34.3265 82.3265C33.9322 81.607 33.3852 81.0452 32.6854 80.6411C31.9955 80.237 31.1971 80.0349 30.2903 80.0349H28.2057V89.5117Z" fill="#FFF0BB"/>
<path d="M38.0895 90.5466C37.9318 90.5466 37.7939 90.4924 37.6756 90.384C37.5672 90.2657 37.5129 90.1277 37.5129 89.97V79.5766C37.5129 79.409 37.5672 79.271 37.6756 79.1626C37.784 79.0542 37.922 79 38.0895 79H45.0234C45.191 79 45.329 79.0542 45.4374 79.1626C45.5458 79.2612 45.6 79.3942 45.6 79.5618C45.6 79.7096 45.5458 79.8378 45.4374 79.9462C45.329 80.0546 45.191 80.1088 45.0234 80.1088H38.6661V84.1893H43.2936C43.4612 84.1893 43.5992 84.2435 43.7076 84.3519C43.816 84.4604 43.8702 84.5934 43.8702 84.7511C43.8702 84.9088 43.816 85.0419 43.7076 85.1503C43.5992 85.2587 43.4612 85.3129 43.2936 85.3129H38.6661V89.97C38.6661 90.1277 38.6119 90.2657 38.5035 90.384C38.3951 90.4924 38.2571 90.5466 38.0895 90.5466Z" fill="#FFF0BB"/>
</g>
</g>
</g>

<animateTransform
      xlink:href="#Rectangle 13"
      attributeName="transform"
      attributeType="XML"
      type="rotate"
      from="0 166.875 54.125"
      to="360 166.875 54.125"
      dur="2s"
      begin="5s; 10s; 20s; 30s"
	  end="5.5s; 10.5s; 20.5s; 30.5s"
      repeatCount="indefinite"
      fill="freeze"
      />

</svg>

